<svg width="109" height="140" viewBox="0 0 109 140" fill="none" xmlns="http://www.w3.org/2000/svg">
<path d="M63.27 85.77L67.46 88.86V108.01L76.86 111.68L82.96 111.3L85.29 118.94L75.99 120.28L55.05 115.42L54.05 97.1L49.05 95.69L63.27 85.77ZM80.57 45.44L77.42 55.09L78.47 56.6199L84.01 55.7499L90.81 31.01L99.05 25.01L94.21 16.01L82.75 21.12L76.91 38.68L80.57 45.44ZM75.25 54.9L78.25 45.72L72.94 35.99L60.05 32.54V30.68L72.05 28.68L70.46 23.42L62.46 23.69L61.64 19.21L71.51 17.78L73.05 10.12L52.86 5.78998L49.62 0H30.86L20.24 19.18L30.02 50.68L52.11 55.61L43.06 54.79L45.38 62.55L41.51 70.07L31.42 72.3799L24.07 86.22L24.68 83.29L18.24 84.86L15.52 83.6L13.76 78.95L24.15 62.35L20.24 49.8699L8.98 47.47L3.78999 50.22L0 57.4901L1 64.32L6.10001 62.32L11.48 56.8799L11.97 52.07L17.35 53.22L19.51 61.68L7.03 78.95L10.11 89.56L17.45 93.98H26.69L23.28 94.45L24.4 102.37L13.4 112.59L20.83 139.96H34.56V129.51L27.93 127.94L25.93 117.52L42.67 103.37L44.58 86.17L44.98 94.31L46.63 94.8L67.18 80.32L69.35 73.32L58.95 62.98L73.16 74.44L102.36 65.2599L108.84 57.8699L102.28 50.14L93.97 56.29L76.65 59.48L73.03 53.1299L75.25 54.9Z" fill="#384391"/>
</svg>
